<svg xmlns="http://www.w3.org/2000/svg" width="155" height="63.117" viewBox="0 0 155 63.117">
  <g id="akamai" transform="translate(-0.446 -0.446)">
    <path id="Path_117" data-name="Path 117" d="M114.349,114.534h-6.325l5.479-11.093h.068l.778,11.093Zm.27,5.039.372,4.4h6.967l-2.334-25.6H109.242l-13.089,25.6h7.1l2.2-4.4Zm17.079-6.832h1.048l5.005-6.73h6.392l-6.9,8.59,4.261,9.3h-6.832l-2.773-7.238h-.981l-1.556,7.238h-5.918l5.411-25.5h5.885Zm19.988,3.788c1.928,0,3.213.135,2.841,1.623-.44,1.928-1.217,2.2-3.686,2.2-.913,0-2.571,0-2.131-1.928.338-1.624,1.556-1.894,2.976-1.894Zm1.624,7.373h5.817l2.333-11.161c1.353-6.189-1.082-6.9-7.034-6.9-4.194,0-8.252-.068-9.47,5.547h5.817c.372-1.623,1.353-1.928,2.773-1.928,2.571,0,2.5,1.082,2.063,2.705l-.575,2.841h-.27c-.2-2.063-2.773-2-4.464-2-4.261,0-6.764,1.353-7.677,5.614-.981,4.566,1.217,5.547,5.276,5.547,2.063,0,4.769-.44,5.75-2.841h.2l-.541,2.57Zm17.722-17.891-.507,2.57h.2c1.15-2.131,3.483-2.705,5.479-2.705,2.57,0,5.039.44,4.7,3.483h.27c.846-2.57,3.483-3.483,5.75-3.483,4.126,0,5.885,1.691,4.972,5.817l-2.638,12.243h-5.817l2.2-10.383c.271-1.928.575-3.281-1.623-3.281s-3.044,1.488-3.416,3.416l-2.131,10.18h-5.817l2.266-10.823c.27-1.624.44-2.773-1.623-2.773-2.4,0-3.145,1.285-3.551,3.416l-2.131,10.18H161.8l3.855-17.925h5.411v.068ZM201.1,116.529c1.928,0,3.213.135,2.841,1.623-.372,1.928-1.218,2.2-3.686,2.2-.846,0-2.571,0-2.131-1.928.338-1.624,1.488-1.894,2.976-1.894Zm1.556,7.373h5.817l2.334-11.161c1.353-6.189-1.082-6.9-7.035-6.9-4.194,0-8.252-.068-9.47,5.547h5.817c.372-1.623,1.353-1.928,2.773-1.928,2.57,0,2.5,1.082,2.063,2.705l-.575,2.841h-.27c-.2-2.063-2.773-2-4.464-2-4.261,0-6.764,1.353-7.677,5.614-.981,4.566,1.217,5.547,5.276,5.547,2.063,0,4.769-.44,5.75-2.841h.2l-.541,2.57Zm14.374,0h-5.817l3.754-17.925h5.817L217.029,123.9Zm5.107-22.795a3.281,3.281,0,1,1-6.561,0,3.281,3.281,0,1,1,6.561,0Z" transform="translate(-66.689 -67.855)" fill="#999"/>
    <path id="Path_118" data-name="Path 118" d="M32.508,62.236a31.519,31.519,0,0,1,.44-60.505c1.353-.372.981-1.285-.643-1.285a31.556,31.556,0,1,0,0,63.109c1.624.1,1.691-.812.2-1.319Zm-16.4-22.829c-.068-.846-.135-1.691-.135-2.57a25.086,25.086,0,0,1,25.095-25.1c13.089,0,17.079,5.817,17.485,5.479.507-.44-4.769-12.006-20.123-12.006A25.086,25.086,0,0,0,13.332,30.31a26.178,26.178,0,0,0,1.691,9.1C15.463,40.625,16.173,40.625,16.105,39.408Zm10.451-18.06c6.46-2.841,14.712-2.909,22.761-.135,5.411,1.928,8.523,4.566,8.827,4.464.44-.2-3.145-5.817-9.6-8.252A22.963,22.963,0,0,0,26.218,20.84c-.676.507-.474.879.338.507Z" fill="#999"/>
  </g>
</svg>
