<svg xmlns="http://www.w3.org/2000/svg" width="154.998" height="38.385" viewBox="0 0 154.998 38.385">
  <g id="algolia" transform="translate(-0.002 -0.003)">
    <path id="Subtraction_1" data-name="Subtraction 1" d="M20688.3,19962.387h-28.248a5.062,5.062,0,0,1-5.053-5.059v-28.3a5.044,5.044,0,0,1,5.053-5.021h28.248a5.06,5.06,0,0,1,5.053,5.053v28.273A5.062,5.062,0,0,1,20688.3,19962.387Zm-13.686-28.7a10.855,10.855,0,1,0,10.838,10.869A10.865,10.865,0,0,0,20674.617,19933.688Zm-8.932-.561a1.657,1.657,0,0,0-1.18.5l-.789.789a1.658,1.658,0,0,0,0,2.363l.67.666a.206.206,0,0,0,.156.061.319.319,0,0,0,.207-.092,15.049,15.049,0,0,1,1.268-1.486,9.829,9.829,0,0,1,1.516-1.268.294.294,0,0,0,.076-.223.186.186,0,0,0-.076-.141l-.664-.67A1.672,1.672,0,0,0,20665.686,19933.127Zm6.963-3.527a1.688,1.688,0,0,0-1.666,1.668v1.361a.225.225,0,0,0,.244.217.347.347,0,0,0,.063,0,12.521,12.521,0,0,1,3.391-.488,11.893,11.893,0,0,1,3.268.457.269.269,0,0,0,.244-.244v-1.3a1.69,1.69,0,0,0-1.668-1.668Zm1.969,22.586a7.6,7.6,0,1,1,5.4-2.227A7.637,7.637,0,0,1,20674.617,19952.186Zm.244-13.928a.236.236,0,0,0-.244.213v5.691a.25.25,0,0,0,.25.229.212.212,0,0,0,.082-.016l5.059-2.633a.224.224,0,0,0,.113-.143.206.206,0,0,0-.025-.164,6.307,6.307,0,0,0-5.234-3.178Z" transform="translate(-20655 -19924)" fill="#999"/>
    <path id="Path_58" data-name="Path 58" d="M210.149,32.085c0,3.118-.787,5.389-2.392,6.812-1.6,1.453-4.026,2.18-7.3,2.18a32.89,32.89,0,0,1-5.691-.666l.727-3.6a26.784,26.784,0,0,0,5.025.454,5.525,5.525,0,0,0,3.905-1.12,4.369,4.369,0,0,0,1.15-3.33v-.757a12.614,12.614,0,0,1-1.786.666,9.087,9.087,0,0,1-2.543.333,9.43,9.43,0,0,1-3.421-.605,6.945,6.945,0,0,1-2.664-1.756,8.189,8.189,0,0,1-1.726-2.876,16.245,16.245,0,0,1-.605-4.723,13.62,13.62,0,0,1,.666-4.39,8.579,8.579,0,0,1,1.907-3.058,8.716,8.716,0,0,1,3.058-1.968,11.082,11.082,0,0,1,4.117-.787,26.1,26.1,0,0,1,4.178.394c1.332.212,2.452.454,3.391.7v18.1Zm-12.654-8.991c0,1.907.424,4.026,1.271,4.9a4.289,4.289,0,0,0,3.239,1.332,6.514,6.514,0,0,0,2.059-.3,6.989,6.989,0,0,0,1.574-.7V17.008a18.441,18.441,0,0,0-3-.394,4.449,4.449,0,0,0-3.784,1.726A7.626,7.626,0,0,0,197.494,23.093Zm34.239,0a11.013,11.013,0,0,1-.666,3.966A9.274,9.274,0,0,1,229.16,30.3a8.642,8.642,0,0,1-2.967,2.089,10.144,10.144,0,0,1-7.689,0,8.641,8.641,0,0,1-2.967-2.089,10.137,10.137,0,0,1-1.938-3.239,11.011,11.011,0,0,1-.7-3.966,12.633,12.633,0,0,1,.666-4.269,9.215,9.215,0,0,1,1.968-3.239,8.726,8.726,0,0,1,2.967-2.059,9.69,9.69,0,0,1,3.784-.727,9.951,9.951,0,0,1,3.814.727,8.292,8.292,0,0,1,2.967,2.059,10.137,10.137,0,0,1,1.937,3.239A11.911,11.911,0,0,1,231.734,23.093Zm-4.662,0A7.97,7.97,0,0,0,225.8,18.34a4.436,4.436,0,0,0-7.023,0,7.97,7.97,0,0,0-1.241,4.753,7.045,7.045,0,0,0,1.271,4.48,4.436,4.436,0,0,0,7.023,0A7.043,7.043,0,0,0,227.071,23.093Zm14.8,10.051c-7.447.03-7.447-6.024-7.447-6.993V4.627l4.541-.727V25.273c0,.545,0,4.026,2.937,4.026l-.03,3.845Zm8.022,0h-4.571V13.5l4.571-.727Zm-2.3-22.523a2.755,2.755,0,1,0-2.785-2.755A2.791,2.791,0,0,0,247.6,10.621ZM261.28,12.8a11.246,11.246,0,0,1,3.784.545,5.928,5.928,0,0,1,2.452,1.574,6.415,6.415,0,0,1,1.3,2.513,11.5,11.5,0,0,1,.394,3.148V32.3q-1.044.227-3.179.545a32.89,32.89,0,0,1-4.783.3,15.219,15.219,0,0,1-3.239-.333,6.54,6.54,0,0,1-2.513-1.09,5.261,5.261,0,0,1-1.6-1.938,7.212,7.212,0,0,1-.575-3.088,4.69,4.69,0,0,1,.666-2.6,5.572,5.572,0,0,1,1.786-1.877,7.72,7.72,0,0,1,2.6-1.06,14.84,14.84,0,0,1,3.088-.3,14.126,14.126,0,0,1,1.574.091,13.363,13.363,0,0,1,1.756.3V20.49a5.859,5.859,0,0,0-.182-1.483,3.085,3.085,0,0,0-.666-1.241,3.12,3.12,0,0,0-1.241-.848,5.022,5.022,0,0,0-1.938-.363,16.576,16.576,0,0,0-2.876.272,15.065,15.065,0,0,0-2.149.515l-.545-3.724a18.1,18.1,0,0,1,2.513-.605A32.868,32.868,0,0,1,261.28,12.8Zm.363,16.529a19.593,19.593,0,0,0,3.148-.212V24.456a8.669,8.669,0,0,0-1.09-.212,12.333,12.333,0,0,0-1.574-.121,8.507,8.507,0,0,0-1.514.121,4.964,4.964,0,0,0-1.393.394,2.722,2.722,0,0,0-1,.848,1.661,1.661,0,0,0-.363,1.12,2.142,2.142,0,0,0,1.06,2.089A5.04,5.04,0,0,0,261.644,29.33ZM171.762,12.921a11.246,11.246,0,0,1,3.784.545A5.928,5.928,0,0,1,178,15.041a6.416,6.416,0,0,1,1.3,2.513,11.5,11.5,0,0,1,.394,3.148V32.418q-1.044.227-3.179.545a32.891,32.891,0,0,1-4.783.3,15.22,15.22,0,0,1-3.239-.333,6.539,6.539,0,0,1-2.513-1.09,5.26,5.26,0,0,1-1.6-1.938,7.212,7.212,0,0,1-.575-3.088,4.69,4.69,0,0,1,.666-2.6,5.573,5.573,0,0,1,1.786-1.877,7.72,7.72,0,0,1,2.6-1.06,14.839,14.839,0,0,1,3.088-.3,14.125,14.125,0,0,1,1.574.091,13.362,13.362,0,0,1,1.756.3v-.757a5.858,5.858,0,0,0-.182-1.483,3.084,3.084,0,0,0-.666-1.241,3.119,3.119,0,0,0-1.241-.848,5.022,5.022,0,0,0-1.937-.363,16.577,16.577,0,0,0-2.876.272,15.067,15.067,0,0,0-2.149.515l-.545-3.724a18.1,18.1,0,0,1,2.513-.605A33.824,33.824,0,0,1,171.762,12.921Zm.394,16.529a19.593,19.593,0,0,0,3.148-.212V24.577a8.667,8.667,0,0,0-1.09-.212,12.333,12.333,0,0,0-1.574-.121,8.506,8.506,0,0,0-1.514.121,4.965,4.965,0,0,0-1.393.394,2.282,2.282,0,0,0-1,.848,1.661,1.661,0,0,0-.363,1.12,2.143,2.143,0,0,0,1.06,2.089A5.04,5.04,0,0,0,172.155,29.451Zm18.467,3.693c-7.447.03-7.447-6.024-7.447-6.993V4.627l4.541-.727V25.273c0,.545,0,4.026,2.937,4.026v3.845Z" transform="translate(-114.212 -2.719)" fill="#999"/>
  </g>
</svg>
