<svg xmlns="http://www.w3.org/2000/svg" width="155" height="33.512" viewBox="0 0 155 33.512">
  <g id="android" transform="translate(-0.256 -0.256)">
    <path id="Path_59" data-name="Path 59" d="M.256,40.932a13.485,13.485,0,0,1,.88-4.9A12.121,12.121,0,0,1,3.6,32.061,11.349,11.349,0,0,1,7.39,29.41a11.961,11.961,0,0,1,4.834-.962,10.651,10.651,0,0,1,3.626.587,9.887,9.887,0,0,1,3.156,1.924V28.917h5.961V52.947H19.006V50.905A9.881,9.881,0,0,1,15.85,52.83a10.648,10.648,0,0,1-3.626.587,11.959,11.959,0,0,1-4.834-.962A11.344,11.344,0,0,1,3.6,49.8a12.121,12.121,0,0,1-2.464-3.966,13.484,13.484,0,0,1-.88-4.9ZM13,47.808a7.652,7.652,0,0,0,1.478-.153,6.883,6.883,0,0,0,1.561-.516,7.316,7.316,0,0,0,1.537-.974,8.8,8.8,0,0,0,1.431-1.5V37.2a8.426,8.426,0,0,0-1.431-1.49,8.015,8.015,0,0,0-1.537-.974,6.567,6.567,0,0,0-1.561-.528A7.662,7.662,0,0,0,13,34.056a6.531,6.531,0,0,0-2.593.516,6.334,6.334,0,0,0-2.1,1.443,6.731,6.731,0,0,0-1.4,2.182,7.659,7.659,0,0,0,0,5.468,6.73,6.73,0,0,0,1.4,2.182,6.333,6.333,0,0,0,2.1,1.443A6.53,6.53,0,0,0,13,47.808Z" transform="translate(0 -19.648)" fill="#999"/>
    <path id="Path_60" data-name="Path 60" d="M105.122,34.38a5.038,5.038,0,0,0-5.278,4.91V52.947H93.884V39.454a11.4,11.4,0,0,1,11.153-11.006h.167a11.4,11.4,0,0,1,11.153,11.006V52.947H110.4V39.289a5.038,5.038,0,0,0-5.278-4.91" transform="translate(-65.255 -19.648)" fill="#999"/>
    <path id="Path_61" data-name="Path 61" d="M177.354,25.442a13.484,13.484,0,0,1,.88-4.9,12.125,12.125,0,0,1,2.464-3.966,11.35,11.35,0,0,1,3.79-2.652,11.961,11.961,0,0,1,4.834-.962,10.752,10.752,0,0,1,3.637.587,9.783,9.783,0,0,1,3.145,1.9V6.222h5.96V37.457H196.1V35.439a9.426,9.426,0,0,1-3.145,1.912,10.95,10.95,0,0,1-3.637.575,11.959,11.959,0,0,1-4.834-.962,11.345,11.345,0,0,1-3.79-2.652,12.125,12.125,0,0,1-2.464-3.966,13.484,13.484,0,0,1-.88-4.9ZM190.1,32.318a7.653,7.653,0,0,0,1.479-.153,6.889,6.889,0,0,0,1.561-.516,7.318,7.318,0,0,0,1.537-.974,8.805,8.805,0,0,0,1.432-1.5V21.71a8.436,8.436,0,0,0-1.432-1.49,8.017,8.017,0,0,0-1.537-.974,6.573,6.573,0,0,0-1.561-.528,7.663,7.663,0,0,0-1.479-.153,6.532,6.532,0,0,0-2.593.516,6.335,6.335,0,0,0-2.1,1.443,6.731,6.731,0,0,0-1.4,2.182,7.663,7.663,0,0,0,0,5.468,6.73,6.73,0,0,0,1.4,2.182,6.334,6.334,0,0,0,2.1,1.443,6.53,6.53,0,0,0,2.593.516Z" transform="translate(-123.431 -4.158)" fill="#999"/>
    <path id="Path_62" data-name="Path 62" d="M321.92,47.808a6.372,6.372,0,0,0,2.523-.5,6.207,6.207,0,0,0,2.065-1.42,6.7,6.7,0,0,0,1.385-2.171,7.394,7.394,0,0,0,.5-2.781,7.181,7.181,0,0,0-.516-2.757A6.758,6.758,0,0,0,326.473,36a6.529,6.529,0,0,0-2.065-1.431,6.109,6.109,0,0,0-2.488-.516,6.25,6.25,0,0,0-2.523.516A6.356,6.356,0,0,0,317.332,36a6.859,6.859,0,0,0-1.4,2.171,7.181,7.181,0,0,0-.516,2.757,7.394,7.394,0,0,0,.5,2.781,6.7,6.7,0,0,0,1.385,2.171,6.207,6.207,0,0,0,2.065,1.42,6.431,6.431,0,0,0,2.546.5Zm0,5.609a12.854,12.854,0,0,1-4.9-.939,12.313,12.313,0,0,1-6.747-6.583,12.285,12.285,0,0,1-1-4.963,12.028,12.028,0,0,1,1-4.881,12.657,12.657,0,0,1,11.651-7.6,12.447,12.447,0,0,1,4.9.974,12.563,12.563,0,0,1,6.723,6.629,12.029,12.029,0,0,1,1,4.881,12.325,12.325,0,0,1-3.719,8.929,12.5,12.5,0,0,1-4.013,2.617,12.766,12.766,0,0,1-4.893.939Z" transform="translate(-215.372 -19.648)" fill="#999"/>
    <path id="Path_63" data-name="Path 63" d="M403.148,7.387a3.371,3.371,0,0,1-1.369-.283,3.658,3.658,0,0,1-1.9-1.9,3.37,3.37,0,0,1-.283-1.37,3.45,3.45,0,0,1,.283-1.381,3.626,3.626,0,0,1,1.9-1.913,3.372,3.372,0,0,1,1.369-.283,3.452,3.452,0,0,1,1.381.283,3.6,3.6,0,0,1,1.913,1.913,3.45,3.45,0,0,1,.283,1.381,3.37,3.37,0,0,1-.283,1.37,3.627,3.627,0,0,1-1.913,1.9,3.451,3.451,0,0,1-1.381.283Z" transform="translate(-278.324)" fill="#999"/>
    <path id="Path_64" data-name="Path 64" d="M401.486,30h5.961V54.027h-5.961Z" transform="translate(-279.642 -20.728)" fill="#999"/>
    <path id="Path_65" data-name="Path 65" d="M430.2,25.442a13.485,13.485,0,0,1,.88-4.9,12.121,12.121,0,0,1,2.464-3.966,11.35,11.35,0,0,1,3.79-2.652,11.96,11.96,0,0,1,4.834-.962,10.752,10.752,0,0,1,3.637.587,9.783,9.783,0,0,1,3.145,1.9V6.222h5.961V37.457H448.95V35.439a9.427,9.427,0,0,1-3.145,1.912,10.95,10.95,0,0,1-3.637.575,11.958,11.958,0,0,1-4.834-.962,11.345,11.345,0,0,1-3.79-2.652,12.12,12.12,0,0,1-2.464-3.966,13.484,13.484,0,0,1-.88-4.9Zm12.743,6.876a7.65,7.65,0,0,0,1.478-.153,6.88,6.88,0,0,0,1.561-.516,7.31,7.31,0,0,0,1.537-.974,8.793,8.793,0,0,0,1.432-1.5V21.71a8.425,8.425,0,0,0-1.432-1.49,8.008,8.008,0,0,0-1.537-.974,6.565,6.565,0,0,0-1.561-.528,7.66,7.66,0,0,0-1.478-.153,6.53,6.53,0,0,0-2.593.516,6.335,6.335,0,0,0-2.1,1.443,6.731,6.731,0,0,0-1.4,2.182,7.659,7.659,0,0,0,0,5.468,6.73,6.73,0,0,0,1.4,2.182,6.334,6.334,0,0,0,2.1,1.443,6.529,6.529,0,0,0,2.593.516Z" transform="translate(-299.655 -4.158)" fill="#999"/>
    <path id="Path_66" data-name="Path 66" d="M280.45,33.957c-3.995,0-5.756,2.061-5.756,4.982V52.6h-5.96V39.1c.033-5.627,3.283-11.158,11.717-11.158" transform="translate(-187.118 -19.298)" fill="#999"/>
  </g>
</svg>
