<svg xmlns="http://www.w3.org/2000/svg" width="155" height="59.765" viewBox="0 0 155 59.765">
  <g id="aws_2_" data-name="aws (2)" transform="translate(-0.498 -0.37)">
    <g id="Group_13" data-name="Group 13" transform="translate(0.498 0.37)">
      <path id="Path_119" data-name="Path 119" d="M27.452,84.281,18.34,81.012V67.657l9.112,3.1v13.52" transform="translate(-7.492 -26.745)" fill="#999" fill-rule="evenodd"/>
      <path id="Path_120" data-name="Path 120" d="M36.075,84.281l9.112-3.269V67.657l-9.112,3.1v13.52" transform="translate(-14.443 -26.745)" fill="#999" fill-rule="evenodd"/>
      <path id="Path_121" data-name="Path 121" d="M19.88,64.341l9.222-2.6L37.653,64.5,29.1,67.4,19.88,64.341" transform="translate(-8.095 -24.428)" fill="#999" fill-rule="evenodd"/>
      <path id="Path_122" data-name="Path 122" d="M9.61,53.595.5,50.326V36.97l9.112,3.1v13.52" transform="translate(-0.498 -14.716)" fill="#999" fill-rule="evenodd"/>
      <path id="Path_123" data-name="Path 123" d="M18.233,53.595l9.112-3.269V36.97l-9.112,3.1v13.52" transform="translate(-7.449 -14.716)" fill="#999" fill-rule="evenodd"/>
      <path id="Path_124" data-name="Path 124" d="M2.038,33.653l9.223-2.6,8.551,2.757-8.551,2.9L2.038,33.653" transform="translate(-1.101 -12.399)" fill="#999" fill-rule="evenodd"/>
      <path id="Path_125" data-name="Path 125" d="M44.579,53.595l-9.112-3.269V36.97l9.112,3.1v13.52" transform="translate(-14.205 -14.716)" fill="#999" fill-rule="evenodd"/>
      <path id="Path_126" data-name="Path 126" d="M53.2,53.595l9.112-3.269V36.97l-9.112,3.1v13.52" transform="translate(-21.157 -14.716)" fill="#999" fill-rule="evenodd"/>
      <path id="Path_127" data-name="Path 127" d="M37.008,33.653l9.222-2.6,8.551,2.757-8.551,2.9-9.222-3.065" transform="translate(-14.809 -12.399)" fill="#999" fill-rule="evenodd"/>
      <path id="Path_128" data-name="Path 128" d="M62.421,22.907l-9.112-3.268V6.283l9.112,3.1v13.52" transform="translate(-21.199 -2.688)" fill="#999" fill-rule="evenodd"/>
      <path id="Path_129" data-name="Path 129" d="M71.044,22.907l9.112-3.268V6.283l-9.112,3.1v13.52" transform="translate(-28.151 -2.688)" fill="#999" fill-rule="evenodd"/>
      <path id="Path_130" data-name="Path 130" d="M54.849,2.966,64.071.37l8.551,2.757-8.551,2.9L54.849,2.966" transform="translate(-21.803 -0.37)" fill="#999" fill-rule="evenodd"/>
      <path id="Path_131" data-name="Path 131" d="M97.39,22.907l-9.112-3.268V6.283l9.112,3.1v13.52" transform="translate(-34.906 -2.688)" fill="#999" fill-rule="evenodd"/>
      <path id="Path_132" data-name="Path 132" d="M106.013,22.907l9.112-3.268V6.283l-9.112,3.1v13.52" transform="translate(-41.858 -2.688)" fill="#999" fill-rule="evenodd"/>
      <path id="Path_133" data-name="Path 133" d="M89.818,2.966,99.04.37l8.551,2.757L99.04,6.03,89.818,2.966" transform="translate(-35.51 -0.37)" fill="#999" fill-rule="evenodd"/>
      <path id="Path_134" data-name="Path 134" d="M86.94,80.69,83.879,91.323H82.548l-2.383-7.9-2.185,7.9H76.624L73.443,80.69h1.645L77.4,88.614l2.206-7.924h1.214l2.4,7.95L85.6,80.69Z" transform="translate(-29.091 -31.854)" fill="#999" fill-rule="evenodd"/>
      <path id="Path_135" data-name="Path 135" d="M86.94,80.69,83.879,91.323H82.548l-2.383-7.9-2.185,7.9H76.624L73.443,80.69h1.645L77.4,88.614l2.206-7.924h1.214l2.4,7.95L85.6,80.69Z" transform="translate(-29.091 -31.854)" fill="#999" fill-rule="evenodd"/>
      <path id="Path_136" data-name="Path 136" d="M104.517,87.961l1.541.316a4.336,4.336,0,0,1-1.639,2.258,4.723,4.723,0,0,1-2.87.894A4.459,4.459,0,0,1,98.028,89.9a6.7,6.7,0,0,1,.053-8.125,4.508,4.508,0,0,1,3.511-1.565,4.239,4.239,0,0,1,3.348,1.441,6.483,6.483,0,0,1,1.3,4.312H98.52q0,2.412,1.008,3.254a3.276,3.276,0,0,0,2.132.842,2.914,2.914,0,0,0,2.857-2.093Zm-.09-3.236a4.611,4.611,0,0,0-.294-1.589,2.709,2.709,0,0,0-.924-1.184,2.534,2.534,0,0,0-1.566-.489,2.792,2.792,0,0,0-2.085.884,3.661,3.661,0,0,0-.961,2.378Z" transform="translate(-38.201 -31.664)" fill="#999" fill-rule="evenodd"/>
      <path id="Path_137" data-name="Path 137" d="M104.517,87.961l1.541.316a4.336,4.336,0,0,1-1.639,2.258,4.723,4.723,0,0,1-2.87.894A4.459,4.459,0,0,1,98.028,89.9a6.7,6.7,0,0,1,.053-8.125,4.508,4.508,0,0,1,3.511-1.565,4.239,4.239,0,0,1,3.348,1.441,6.483,6.483,0,0,1,1.3,4.312H98.52q0,2.412,1.008,3.254a3.276,3.276,0,0,0,2.132.842,2.914,2.914,0,0,0,2.857-2.093Zm-.09-3.236a4.611,4.611,0,0,0-.294-1.589,2.709,2.709,0,0,0-.924-1.184,2.534,2.534,0,0,0-1.566-.489,2.792,2.792,0,0,0-2.085.884,3.661,3.661,0,0,0-.961,2.378Z" transform="translate(-38.201 -31.664)" fill="#999" fill-rule="evenodd"/>
      <path id="Path_138" data-name="Path 138" d="M116.772,88.923h-.8V74.565h1.657v5.5a3.464,3.464,0,0,1,3.129-2.068,3.866,3.866,0,0,1,3.06,1.444,6.287,6.287,0,0,1,1.234,4.194,6.414,6.414,0,0,1-1.214,3.978,3.781,3.781,0,0,1-3.159,1.608,3.629,3.629,0,0,1-3.32-2.055l-.591,1.759Zm.86-4.169a3.239,3.239,0,0,0,1,2.377,2.894,2.894,0,0,0,1.877.74,2.381,2.381,0,0,0,2.035-1.1,5.127,5.127,0,0,0,.773-3,5.987,5.987,0,0,0-.747-3.229,2.333,2.333,0,0,0-2.072-1.175,2.6,2.6,0,0,0-1.877.836,3.549,3.549,0,0,0-.994,2.162v2.388Z" transform="translate(-45.764 -29.453)" fill="#999" fill-rule="evenodd"/>
      <path id="Path_139" data-name="Path 139" d="M116.772,88.923h-.8V74.565h1.657v5.5a3.464,3.464,0,0,1,3.129-2.068,3.866,3.866,0,0,1,3.06,1.444,6.287,6.287,0,0,1,1.234,4.194,6.414,6.414,0,0,1-1.214,3.978,3.781,3.781,0,0,1-3.159,1.608,3.629,3.629,0,0,1-3.32-2.055l-.591,1.759Zm.86-4.169a3.239,3.239,0,0,0,1,2.377,2.894,2.894,0,0,0,1.877.74,2.381,2.381,0,0,0,2.035-1.1,5.127,5.127,0,0,0,.773-3,5.987,5.987,0,0,0-.747-3.229,2.333,2.333,0,0,0-2.072-1.175,2.6,2.6,0,0,0-1.877.836,3.549,3.549,0,0,0-.994,2.162v2.388Z" transform="translate(-45.764 -29.453)" fill="#999" fill-rule="evenodd"/>
      <path id="Path_140" data-name="Path 140" d="M137.853,88.378l1.579-.326q.527,2,3.328,2a3.156,3.156,0,0,0,1.747-.462,1.463,1.463,0,0,0,.716-1.3q0-1.249-1.823-1.585l-2.239-.426a4.083,4.083,0,0,1-2.094-.99,2.559,2.559,0,0,1-.778-1.948,2.816,2.816,0,0,1,1.062-2.237,4.279,4.279,0,0,1,2.861-.9q3.46,0,4.27,2.7l-1.515.326a2.59,2.59,0,0,0-2.68-1.656,3.024,3.024,0,0,0-1.656.414,1.3,1.3,0,0,0-.646,1.158q0,1.172,1.652,1.476l2.07.381q3.251.59,3.25,3.153a2.814,2.814,0,0,1-1.21,2.367,5.262,5.262,0,0,1-3.221.9q-3.779,0-4.673-3.051Z" transform="translate(-54.339 -31.664)" fill="#999" fill-rule="evenodd"/>
      <path id="Path_141" data-name="Path 141" d="M137.853,88.378l1.579-.326q.527,2,3.328,2a3.156,3.156,0,0,0,1.747-.462,1.463,1.463,0,0,0,.716-1.3q0-1.249-1.823-1.585l-2.239-.426a4.083,4.083,0,0,1-2.094-.99,2.559,2.559,0,0,1-.778-1.948,2.816,2.816,0,0,1,1.062-2.237,4.279,4.279,0,0,1,2.861-.9q3.46,0,4.27,2.7l-1.515.326a2.59,2.59,0,0,0-2.68-1.656,3.024,3.024,0,0,0-1.656.414,1.3,1.3,0,0,0-.646,1.158q0,1.172,1.652,1.476l2.07.381q3.251.59,3.25,3.153a2.814,2.814,0,0,1-1.21,2.367,5.262,5.262,0,0,1-3.221.9q-3.779,0-4.673-3.051Z" transform="translate(-54.339 -31.664)" fill="#999" fill-rule="evenodd"/>
      <path id="Path_142" data-name="Path 142" d="M162.267,87.961l1.541.316a4.327,4.327,0,0,1-1.639,2.258,4.718,4.718,0,0,1-2.869.894,4.457,4.457,0,0,1-3.521-1.534,6.7,6.7,0,0,1,.054-8.125,4.507,4.507,0,0,1,3.51-1.565,4.24,4.24,0,0,1,3.348,1.441,6.48,6.48,0,0,1,1.3,4.312H156.27q0,2.412,1.008,3.254a3.279,3.279,0,0,0,2.132.842,2.914,2.914,0,0,0,2.856-2.093Zm-.09-3.236a4.611,4.611,0,0,0-.294-1.589,2.71,2.71,0,0,0-.925-1.184,2.532,2.532,0,0,0-1.565-.489,2.794,2.794,0,0,0-2.085.884,3.662,3.662,0,0,0-.961,2.378Z" transform="translate(-60.839 -31.664)" fill="#999" fill-rule="evenodd"/>
      <path id="Path_143" data-name="Path 143" d="M162.267,87.961l1.541.316a4.327,4.327,0,0,1-1.639,2.258,4.718,4.718,0,0,1-2.869.894,4.457,4.457,0,0,1-3.521-1.534,6.7,6.7,0,0,1,.054-8.125,4.507,4.507,0,0,1,3.51-1.565,4.24,4.24,0,0,1,3.348,1.441,6.48,6.48,0,0,1,1.3,4.312H156.27q0,2.412,1.008,3.254a3.279,3.279,0,0,0,2.132.842,2.914,2.914,0,0,0,2.856-2.093Zm-.09-3.236a4.611,4.611,0,0,0-.294-1.589,2.71,2.71,0,0,0-.925-1.184,2.532,2.532,0,0,0-1.565-.489,2.794,2.794,0,0,0-2.085.884,3.662,3.662,0,0,0-.961,2.378Z" transform="translate(-60.839 -31.664)" fill="#999" fill-rule="evenodd"/>
      <path id="Path_144" data-name="Path 144" d="M174.734,91.133h-1.657V80.5h1.452v2.479a5.276,5.276,0,0,1,1.54-2.257,2.816,2.816,0,0,1,1.583-.517c.168,0,.385.013.652.039v1.579h-.336a2.909,2.909,0,0,0-2.268,1.015,4.108,4.108,0,0,0-.966,2.667v5.629Z" transform="translate(-68.146 -31.664)" fill="#999" fill-rule="evenodd"/>
      <path id="Path_145" data-name="Path 145" d="M174.734,91.133h-1.657V80.5h1.452v2.479a5.276,5.276,0,0,1,1.54-2.257,2.816,2.816,0,0,1,1.583-.517c.168,0,.385.013.652.039v1.579h-.336a2.909,2.909,0,0,0-2.268,1.015,4.108,4.108,0,0,0-.966,2.667v5.629Z" transform="translate(-68.146 -31.664)" fill="#999" fill-rule="evenodd"/>
      <path id="Path_146" data-name="Path 146" d="M192.677,80.69l-3.671,10.633h-1.716L183.495,80.69h1.833l2.951,8.643,2.929-8.643Z" transform="translate(-72.23 -31.854)" fill="#999" fill-rule="evenodd"/>
      <path id="Path_147" data-name="Path 147" d="M192.677,80.69l-3.671,10.633h-1.716L183.495,80.69h1.833l2.951,8.643,2.929-8.643Z" transform="translate(-72.23 -31.854)" fill="#999" fill-rule="evenodd"/>
      <path id="Path_148" data-name="Path 148" d="M200.774,74.565h1.772V76.4h-1.772Zm.077,3.724h1.656V88.923h-1.656Z" transform="translate(-79.003 -29.453)" fill="#999" fill-rule="evenodd"/>
      <path id="Path_149" data-name="Path 149" d="M200.774,74.565h1.772V76.4h-1.772Zm.077,3.724h1.656V88.923h-1.656Z" transform="translate(-79.003 -29.453)" fill="#999" fill-rule="evenodd"/>
      <path id="Path_150" data-name="Path 150" d="M213.272,87.409l1.49.263a4.758,4.758,0,0,1-1.4,2.759,4.222,4.222,0,0,1-6.053-.626,6.674,6.674,0,0,1-1.152-3.963,6.494,6.494,0,0,1,1.215-4.031A3.923,3.923,0,0,1,210.68,80.2a3.773,3.773,0,0,1,2.782,1.039,4.652,4.652,0,0,1,1.3,2.684l-1.49.284q-.42-2.632-2.543-2.633a2.345,2.345,0,0,0-2.1,1.162,5.554,5.554,0,0,0-.736,3.013,5.825,5.825,0,0,0,.73,3.171,2.315,2.315,0,0,0,2.055,1.13q2.048,0,2.6-2.645Z" transform="translate(-81.113 -31.664)" fill="#999" fill-rule="evenodd"/>
      <path id="Path_151" data-name="Path 151" d="M213.272,87.409l1.49.263a4.758,4.758,0,0,1-1.4,2.759,4.222,4.222,0,0,1-6.053-.626,6.674,6.674,0,0,1-1.152-3.963,6.494,6.494,0,0,1,1.215-4.031A3.923,3.923,0,0,1,210.68,80.2a3.773,3.773,0,0,1,2.782,1.039,4.652,4.652,0,0,1,1.3,2.684l-1.49.284q-.42-2.632-2.543-2.633a2.345,2.345,0,0,0-2.1,1.162,5.554,5.554,0,0,0-.736,3.013,5.825,5.825,0,0,0,.73,3.171,2.315,2.315,0,0,0,2.055,1.13q2.048,0,2.6-2.645Z" transform="translate(-81.113 -31.664)" fill="#999" fill-rule="evenodd"/>
      <path id="Path_152" data-name="Path 152" d="M230.624,87.961l1.541.316a4.33,4.33,0,0,1-1.639,2.258,4.718,4.718,0,0,1-2.869.894,4.458,4.458,0,0,1-3.521-1.534,6.7,6.7,0,0,1,.053-8.125A4.508,4.508,0,0,1,227.7,80.2a4.238,4.238,0,0,1,3.347,1.441,6.48,6.48,0,0,1,1.3,4.312h-7.718q0,2.412,1.008,3.254a3.279,3.279,0,0,0,2.133.842,2.915,2.915,0,0,0,2.856-2.093Zm-.09-3.236a4.625,4.625,0,0,0-.294-1.589,2.713,2.713,0,0,0-.924-1.184,2.534,2.534,0,0,0-1.566-.489,2.791,2.791,0,0,0-2.085.884,3.656,3.656,0,0,0-.961,2.378Z" transform="translate(-87.633 -31.664)" fill="#999" fill-rule="evenodd"/>
      <path id="Path_153" data-name="Path 153" d="M230.624,87.961l1.541.316a4.33,4.33,0,0,1-1.639,2.258,4.718,4.718,0,0,1-2.869.894,4.458,4.458,0,0,1-3.521-1.534,6.7,6.7,0,0,1,.053-8.125A4.508,4.508,0,0,1,227.7,80.2a4.238,4.238,0,0,1,3.347,1.441,6.48,6.48,0,0,1,1.3,4.312h-7.718q0,2.412,1.008,3.254a3.279,3.279,0,0,0,2.133.842,2.915,2.915,0,0,0,2.856-2.093Zm-.09-3.236a4.625,4.625,0,0,0-.294-1.589,2.713,2.713,0,0,0-.924-1.184,2.534,2.534,0,0,0-1.566-.489,2.791,2.791,0,0,0-2.085.884,3.656,3.656,0,0,0-.961,2.378Z" transform="translate(-87.633 -31.664)" fill="#999" fill-rule="evenodd"/>
      <path id="Path_154" data-name="Path 154" d="M240.042,88.378l1.58-.326q.526,2,3.327,2a3.155,3.155,0,0,0,1.748-.462,1.465,1.465,0,0,0,.717-1.3q0-1.249-1.823-1.585l-2.239-.426a4.086,4.086,0,0,1-2.094-.99,2.559,2.559,0,0,1-.778-1.948,2.814,2.814,0,0,1,1.062-2.237,4.278,4.278,0,0,1,2.861-.9q3.46,0,4.27,2.7l-1.515.326a2.59,2.59,0,0,0-2.68-1.656,3.02,3.02,0,0,0-1.656.414,1.3,1.3,0,0,0-.647,1.158q0,1.172,1.653,1.476l2.07.381q3.25.59,3.251,3.153a2.813,2.813,0,0,1-1.211,2.367,5.263,5.263,0,0,1-3.221.9q-3.778,0-4.674-3.051Z" transform="translate(-94.396 -31.664)" fill="#999" fill-rule="evenodd"/>
      <path id="Path_155" data-name="Path 155" d="M240.042,88.378l1.58-.326q.526,2,3.327,2a3.155,3.155,0,0,0,1.748-.462,1.465,1.465,0,0,0,.717-1.3q0-1.249-1.823-1.585l-2.239-.426a4.086,4.086,0,0,1-2.094-.99,2.559,2.559,0,0,1-.778-1.948,2.814,2.814,0,0,1,1.062-2.237,4.278,4.278,0,0,1,2.861-.9q3.46,0,4.27,2.7l-1.515.326a2.59,2.59,0,0,0-2.68-1.656,3.02,3.02,0,0,0-1.656.414,1.3,1.3,0,0,0-.647,1.158q0,1.172,1.653,1.476l2.07.381q3.25.59,3.251,3.153a2.813,2.813,0,0,1-1.211,2.367,5.263,5.263,0,0,1-3.221.9q-3.778,0-4.674-3.051Z" transform="translate(-94.396 -31.664)" fill="#999" fill-rule="evenodd"/>
      <path id="Path_156" data-name="Path 156" d="M178.21,41.248V38.694a.631.631,0,0,1,.647-.647H190.3a.639.639,0,0,1,.661.645v2.191a3.582,3.582,0,0,1-.862,1.608l-5.929,8.466a12.7,12.7,0,0,1,6.529,1.4,1.167,1.167,0,0,1,.607,1V56.08c0,.376-.41.81-.843.584a13.184,13.184,0,0,0-12.1.022c-.4.212-.815-.216-.815-.592V53.5a3.08,3.08,0,0,1,.426-1.756l6.87-9.856h-5.982a.637.637,0,0,1-.661-.643" transform="translate(-69.902 -15.138)" fill="#999" fill-rule="evenodd"/>
      <path id="Path_157" data-name="Path 157" d="M108.6,56.989H105.12a.656.656,0,0,1-.623-.589l0-17.875a.657.657,0,0,1,.672-.644h3.243a.656.656,0,0,1,.634.6v2.334h.066a4.594,4.594,0,0,1,4.583-3.31c2.179,0,3.544,1.053,4.519,3.31a5.143,5.143,0,0,1,8.842-1.354c1.105,1.5.878,3.686.878,5.6l0,11.28a.657.657,0,0,1-.672.644h-3.478a.654.654,0,0,1-.626-.642V46.871a22.831,22.831,0,0,0-.1-3.348,1.815,1.815,0,0,0-2.048-1.542,2.309,2.309,0,0,0-2.081,1.467,10.8,10.8,0,0,0-.325,3.423v9.475a.657.657,0,0,1-.671.644h-3.479a.654.654,0,0,1-.625-.642l0-9.476c0-1.993.325-4.928-2.145-4.928-2.5,0-2.406,2.859-2.406,4.928l0,9.475a.656.656,0,0,1-.671.644" transform="translate(-41.264 -14.926)" fill="#999" fill-rule="evenodd"/>
      <path id="Path_158" data-name="Path 158" d="M208.43,37.505c5.128,0,7.9,4.438,7.9,10.081,0,5.454-3.064,9.78-7.9,9.78-5.031,0-7.773-4.439-7.773-9.968,0-5.567,2.774-9.893,7.773-9.893Zm.032,4.109c-2.548,0-2.709,3.5-2.709,5.68s-.032,6.386,2.677,6.386c2.677,0,2.806-3.3,2.806-5.6a16.654,16.654,0,0,0-.516-4.74,2.167,2.167,0,0,0-2.258-1.73Z" transform="translate(-78.957 -14.926)" fill="#999" fill-rule="evenodd"/>
      <path id="Path_159" data-name="Path 159" d="M236,56.989h-3.469a.654.654,0,0,1-.625-.642L231.9,38.466a.659.659,0,0,1,.669-.583h3.23a.661.661,0,0,1,.619.5v2.734h.066c.975-2.445,2.34-3.611,4.746-3.611a4.566,4.566,0,0,1,4.064,2.106c.91,1.429.91,3.837.91,5.567V56.426a.66.66,0,0,1-.667.563h-3.492a.657.657,0,0,1-.62-.563V46.721c0-1.956.228-4.814-2.178-4.814a2.277,2.277,0,0,0-2.016,1.429,7.945,7.945,0,0,0-.553,3.385v9.625a.667.667,0,0,1-.679.644" transform="translate(-91.204 -14.926)" fill="#999" fill-rule="evenodd"/>
      <path id="Path_160" data-name="Path 160" d="M157.655,48.342A6.835,6.835,0,0,1,157,52.036a2.829,2.829,0,0,1-2.411,1.583c-1.335,0-2.117-1.018-2.117-2.526,0-2.966,2.661-3.506,5.18-3.506v.754Zm3.511,8.492a.722.722,0,0,1-.823.081,8.51,8.51,0,0,1-2-2.321,6.9,6.9,0,0,1-5.742,2.532c-2.932,0-5.212-1.809-5.212-5.428A5.916,5.916,0,0,1,151.106,46c1.89-.83,4.529-.98,6.549-1.207v-.452a4.459,4.459,0,0,0-.424-2.526,2.326,2.326,0,0,0-1.955-.9,2.652,2.652,0,0,0-2.8,2.091.735.735,0,0,1-.6.64l-3.376-.365a.613.613,0,0,1-.52-.728c.776-4.1,4.474-5.333,7.789-5.333a7.9,7.9,0,0,1,5.245,1.734c1.694,1.583,1.531,3.694,1.531,5.994v5.426a4.757,4.757,0,0,0,1.315,3.228.656.656,0,0,1-.012.925c-.712.6-1.975,1.694-2.671,2.313l-.008-.007Z" transform="translate(-58.078 -14.815)" fill="#999" fill-rule="evenodd"/>
      <path id="Path_161" data-name="Path 161" d="M83.214,48.342a6.833,6.833,0,0,1-.651,3.695,2.828,2.828,0,0,1-2.411,1.583c-1.336,0-2.118-1.018-2.118-2.526,0-2.966,2.661-3.506,5.18-3.506v.754Zm3.512,8.492a.722.722,0,0,1-.823.081,8.5,8.5,0,0,1-2-2.321,6.9,6.9,0,0,1-5.742,2.532c-2.933,0-5.213-1.809-5.213-5.428A5.916,5.916,0,0,1,76.665,46c1.89-.83,4.529-.98,6.548-1.207v-.452a4.463,4.463,0,0,0-.423-2.526,2.328,2.328,0,0,0-1.955-.9,2.652,2.652,0,0,0-2.8,2.091.735.735,0,0,1-.605.64l-3.375-.365a.613.613,0,0,1-.519-.728c.775-4.1,4.474-5.333,7.788-5.333a7.9,7.9,0,0,1,5.246,1.734c1.694,1.583,1.531,3.694,1.531,5.994v5.426A4.757,4.757,0,0,0,89.415,53.6a.656.656,0,0,1-.011.925c-.712.6-1.976,1.694-2.671,2.313l-.008-.007Z" transform="translate(-28.898 -14.815)" fill="#999" fill-rule="evenodd"/>
    </g>
  </g>
</svg>
