<svg xmlns="http://www.w3.org/2000/svg" width="155" height="28.683" viewBox="0 0 155 28.683">
  <g id="behance" transform="translate(-0.06 -0.009)">
    <path id="Path_96" data-name="Path 96" d="M12.874,23.369a7.979,7.979,0,0,0,1.738-.176,4.122,4.122,0,0,0,1.46-.6,2.981,2.981,0,0,0,1.008-1.124,3.9,3.9,0,0,0,.37-1.825,3.676,3.676,0,0,0-1.22-3.107A5.231,5.231,0,0,0,13,15.616H6.259v7.753Zm-.342-11.985a4.483,4.483,0,0,0,2.727-.79,2.958,2.958,0,0,0,1.059-2.56,3.344,3.344,0,0,0-.346-1.616,2.556,2.556,0,0,0-.955-.979,3.85,3.85,0,0,0-1.365-.494,8.267,8.267,0,0,0-1.594-.139h-5.8v6.579Zm.8-11.375a17.326,17.326,0,0,1,3.672.357A7.994,7.994,0,0,1,19.85,1.528a5.438,5.438,0,0,1,1.838,2.147,7.572,7.572,0,0,1,.645,3.3,6.168,6.168,0,0,1-.965,3.547,7,7,0,0,1-2.873,2.322,6.723,6.723,0,0,1,3.867,2.622,7.819,7.819,0,0,1,1.273,4.519,7.806,7.806,0,0,1-.819,3.691,7.186,7.186,0,0,1-2.227,2.55,9.792,9.792,0,0,1-3.2,1.46,14.294,14.294,0,0,1-3.68.474H.06V.009Z" fill="#999"/>
    <path id="Path_97" data-name="Path 97" d="M97.4,29.129a4.19,4.19,0,0,0-3.168-1.135,4.811,4.811,0,0,0-2.228.458,4.484,4.484,0,0,0-1.418,1.124,4.015,4.015,0,0,0-.751,1.436,6.459,6.459,0,0,0-.256,1.344h9.111a5.449,5.449,0,0,0-1.29-3.225ZM90.97,39.839a5.7,5.7,0,0,0,6.545.376,3.6,3.6,0,0,0,1.5-1.807h4.931a9.351,9.351,0,0,1-3.636,5.26,10.576,10.576,0,0,1-5.9,1.588,11.757,11.757,0,0,1-4.348-.772,9.255,9.255,0,0,1-3.293-2.193,10.033,10.033,0,0,1-2.07-3.4,12.457,12.457,0,0,1-.732-4.346,11.983,11.983,0,0,1,.753-4.265A9.883,9.883,0,0,1,90.152,24.6a10.589,10.589,0,0,1,4.252-.83,9.644,9.644,0,0,1,4.53,1.008,9.026,9.026,0,0,1,3.179,2.7,11.082,11.082,0,0,1,1.792,3.869,14.463,14.463,0,0,1,.389,4.539H89.583a5.707,5.707,0,0,0,1.386,3.956Z" transform="translate(-58.498 -16.564)" fill="#999"/>
    <path id="Path_98" data-name="Path 98" d="M164.433.009V10.625h.128a6.414,6.414,0,0,1,2.716-2.572,7.348,7.348,0,0,1,3.228-.8,9.517,9.517,0,0,1,3.678.6,5.527,5.527,0,0,1,2.271,1.7,6.7,6.7,0,0,1,1.155,2.644,16.509,16.509,0,0,1,.335,3.442V28.164h-5.627V16.653a7.191,7.191,0,0,0-.784-3.765,3.038,3.038,0,0,0-2.789-1.241,3.84,3.84,0,0,0-3.287,1.364,7.493,7.493,0,0,0-1.025,4.47V28.164h-5.625V.009h5.625" transform="translate(-110.684)" fill="#999"/>
    <path id="Path_99" data-name="Path 99" d="M242.43,35.258a10.76,10.76,0,0,1-1.132.3c-.411.078-.839.141-1.284.2s-.894.114-1.333.194a9.959,9.959,0,0,0-1.237.319,3.57,3.57,0,0,0-1.055.531,2.576,2.576,0,0,0-.73.847,2.793,2.793,0,0,0-.276,1.3,2.705,2.705,0,0,0,.276,1.264,2.1,2.1,0,0,0,.744.807,3.159,3.159,0,0,0,1.1.414,6.632,6.632,0,0,0,1.3.114,4.941,4.941,0,0,0,2.555-.549,3.665,3.665,0,0,0,1.339-1.322,4.045,4.045,0,0,0,.52-1.552,9.447,9.447,0,0,0,.107-1.266V34.76a2.454,2.454,0,0,1-.889.5Zm-11.021-7.933a6.61,6.61,0,0,1,2.2-2.094,9.46,9.46,0,0,1,3.015-1.127,16.657,16.657,0,0,1,3.372-.338,22.929,22.929,0,0,1,3.117.216,9.479,9.479,0,0,1,2.872.85,5.585,5.585,0,0,1,2.121,1.763,4.862,4.862,0,0,1,.836,2.98V40.2a22.652,22.652,0,0,0,.154,2.642,4.575,4.575,0,0,0,.67,1.9l-5.72-.014a2.781,2.781,0,0,1-.372-.958,8.011,8.011,0,0,1-.138-1,7.245,7.245,0,0,1-3.152,1.939,12.717,12.717,0,0,1-3.7.55,9.984,9.984,0,0,1-2.716-.36,6.313,6.313,0,0,1-2.2-1.1,5.191,5.191,0,0,1-1.474-1.9,6.476,6.476,0,0,1-.535-2.728,5.907,5.907,0,0,1,.62-2.865,4.973,4.973,0,0,1,1.573-1.8,6.873,6.873,0,0,1,2.209-1.007,23.574,23.574,0,0,1,2.494-.536c.844-.129,1.664-.234,2.485-.315a14.739,14.739,0,0,0,2.17-.355,3.816,3.816,0,0,0,1.5-.694,1.532,1.532,0,0,0,.512-1.324,3.045,3.045,0,0,0-.3-1.443,2.194,2.194,0,0,0-.779-.825,3.125,3.125,0,0,0-1.131-.4,9.689,9.689,0,0,0-1.391-.1,4.187,4.187,0,0,0-2.577.712,3.242,3.242,0,0,0-1.108,2.383h-5.617a6.44,6.44,0,0,1,.994-3.281Z" transform="translate(-160.151 -16.564)" fill="#999"/>
    <path id="Path_100" data-name="Path 100" d="M308.64,24.461V27.3h.125a6.333,6.333,0,0,1,2.758-2.572,8.012,8.012,0,0,1,3.475-.8,9.534,9.534,0,0,1,3.687.6,5.393,5.393,0,0,1,2.27,1.7,6.479,6.479,0,0,1,1.17,2.644,16.12,16.12,0,0,1,.339,3.442V44.841h-5.629V33.33a7.152,7.152,0,0,0-.789-3.765,3.118,3.118,0,0,0-2.8-1.357,3.952,3.952,0,0,0-3.315,1.48,7.525,7.525,0,0,0-1.026,4.47V44.841h-5.568V24.461h5.3" transform="translate(-211.453 -16.677)" fill="#999"/>
    <path id="Path_101" data-name="Path 101" d="M383.718,27.993a3.841,3.841,0,0,0-2.241.612,4.845,4.845,0,0,0-1.489,1.58,6.923,6.923,0,0,0-.809,2.132,11.966,11.966,0,0,0-.238,2.312,11.5,11.5,0,0,0,.238,2.255,7.256,7.256,0,0,0,.77,2.075,4.553,4.553,0,0,0,1.445,1.517,3.912,3.912,0,0,0,2.2.594,4.129,4.129,0,0,0,3.1-1.121,5.361,5.361,0,0,0,1.354-3.018h5.408a9.292,9.292,0,0,1-3.154,6.193,10.232,10.232,0,0,1-6.671,2.132,11.223,11.223,0,0,1-4.2-.772,9.394,9.394,0,0,1-3.264-2.154,9.971,9.971,0,0,1-2.1-3.3,11.519,11.519,0,0,1-.747-4.206,13.642,13.642,0,0,1,.693-4.407,9.739,9.739,0,0,1,2.04-3.51,9.278,9.278,0,0,1,3.284-2.314,11.12,11.12,0,0,1,4.417-.83,13.225,13.225,0,0,1,3.495.469,9.2,9.2,0,0,1,2.995,1.441,7.738,7.738,0,0,1,2.155,2.4,7.833,7.833,0,0,1,.945,3.406h-5.491a3.739,3.739,0,0,0-4.136-3.487" transform="translate(-260.249 -16.564)" fill="#999"/>
    <path id="Path_102" data-name="Path 102" d="M98.749,6.248h11.413V9.027H98.749Z" transform="translate(-68.809 -4.35)" fill="#999"/>
    <path id="Path_103" data-name="Path 103" d="M458.171,29.129A4.229,4.229,0,0,0,455,27.993a4.895,4.895,0,0,0-2.24.458,4.617,4.617,0,0,0-1.467,1.124,4.221,4.221,0,0,0-.76,1.436,7.068,7.068,0,0,0-.25,1.344h9.179a5.557,5.557,0,0,0-1.295-3.225Zm-6.5,10.71a5.153,5.153,0,0,0,3.694,1.232,4.957,4.957,0,0,0,2.914-.855,3.533,3.533,0,0,0,1.5-1.807H464.7a9.373,9.373,0,0,1-3.629,5.26,10.592,10.592,0,0,1-5.909,1.588,11.7,11.7,0,0,1-4.348-.772,9.21,9.21,0,0,1-3.287-2.193,9.869,9.869,0,0,1-2.076-3.4,12.462,12.462,0,0,1-.728-4.346,11.961,11.961,0,0,1,.748-4.265,10.05,10.05,0,0,1,2.141-3.416,10.16,10.16,0,0,1,3.295-2.273,10.643,10.643,0,0,1,4.256-.83,9.579,9.579,0,0,1,4.521,1.008,8.95,8.95,0,0,1,3.182,2.7,11.033,11.033,0,0,1,1.8,3.869,14.663,14.663,0,0,1,.4,4.539H450.286a5.7,5.7,0,0,0,1.381,3.956Z" transform="translate(-310.034 -16.564)" fill="#999"/>
  </g>
</svg>
