<svg id="Group_45" data-name="Group 45" xmlns="http://www.w3.org/2000/svg" width="13.347" height="13.345" viewBox="0 0 13.347 13.345">
  <path id="Path_208" data-name="Path 208" d="M-197.352,491.337q-2.5,0-5,0a1.568,1.568,0,0,1-1.667-1.67c-.01-1.973,0-3.946,0-5.919,0-1.32,0-2.64,0-3.96a1.6,1.6,0,0,1,1.8-1.793q1.688,0,3.377,0c.524,0,.83.25.829.666s-.306.665-.83.667c-1.07,0-2.14,0-3.21,0-.523,0-.627.1-.627.638q0,4.71,0,9.421c0,.5.117.614.612.614q4.731,0,9.463,0c.474,0,.6-.117.6-.586,0-1.084,0-2.168,0-3.251,0-.527.247-.829.665-.83s.667.3.668.828c0,1.139,0,2.279,0,3.418a1.591,1.591,0,0,1-1.75,1.756Z" transform="translate(204.027 -477.992)" fill="#5798ff"/>
  <path id="Path_209" data-name="Path 209" d="M-128.248,479.315c-.588,0-1.043,0-1.5,0-.519,0-.825-.259-.818-.677s.3-.653.8-.655q1.542-.005,3.083,0c.542,0,.784.246.786.792q.007,1.542,0,3.083c0,.49-.259.789-.663.791s-.664-.3-.669-.785c0-.467,0-.933,0-1.482-.17.158-.28.253-.383.356q-2.181,2.179-4.358,4.362a.8.8,0,0,1-1,.241.738.738,0,0,1-.087-1.229q1.776-1.788,3.563-3.566C-129.115,480.164-128.727,479.786-128.248,479.315Z" transform="translate(139.24 -477.979)" fill="#5798ff"/>
</svg>
