<svg id="twotone-call-24px" xmlns="http://www.w3.org/2000/svg" width="24" height="24" viewBox="0 0 24 24">
  <g id="Bounding_Boxes">
    <path id="Path_173" data-name="Path 173" d="M0,0H24V24H0Z" fill="none"/>
  </g>
  <g id="Duotone">
    <g id="Group_17" data-name="Group 17">
      <path id="Path_174" data-name="Path 174" d="M19,17.47a14.289,14.289,0,0,1-2.6-.45l-1.19,1.19a14.476,14.476,0,0,0,3.8.75V17.47Z" fill="#5798ff" opacity="0.3"/>
      <path id="Path_175" data-name="Path 175" d="M6.54,5H5.04a15.426,15.426,0,0,0,.75,3.8l1.2-1.2A12.519,12.519,0,0,1,6.54,5Z" fill="#5798ff" opacity="0.3"/>
      <path id="Path_176" data-name="Path 176" d="M20,21a1,1,0,0,0,1-1V16.51a1,1,0,0,0-1-1,11.407,11.407,0,0,1-3.57-.57.839.839,0,0,0-.31-.05,1.024,1.024,0,0,0-.71.29l-2.2,2.2a15.149,15.149,0,0,1-6.59-6.59l2.2-2.2a1,1,0,0,0,.25-1.02A11.36,11.36,0,0,1,8.5,4a1,1,0,0,0-1-1H4A1,1,0,0,0,3,4,17,17,0,0,0,20,21Zm-3.6-3.98a12.753,12.753,0,0,0,2.6.45v1.49a15.426,15.426,0,0,1-3.8-.75ZM5.03,5h1.5a13,13,0,0,0,.46,2.59l-1.2,1.2A14.825,14.825,0,0,1,5.03,5Z" fill="#5798ff"/>
    </g>
  </g>
</svg>
