<svg id="twotone-call-24px" xmlns="http://www.w3.org/2000/svg" width="48" height="48" viewBox="0 0 48 48">
  <g id="Bounding_Boxes">
    <path id="Path_181" data-name="Path 181" d="M0,0H48V48H0Z" fill="none"/>
  </g>
  <g id="Duotone" transform="translate(6 6)">
    <g id="Group_19" data-name="Group 19">
      <path id="Path_182" data-name="Path 182" d="M22.79,17.92a28.576,28.576,0,0,1-5.2-.9L15.21,19.4a28.951,28.951,0,0,0,7.6,1.5V17.92Z" transform="translate(9.21 11.02)" fill="#fff" opacity="0.3"/>
      <path id="Path_183" data-name="Path 183" d="M8.04,5h-3a30.853,30.853,0,0,0,1.5,7.6l2.4-2.4A25.039,25.039,0,0,1,8.04,5Z" transform="translate(-0.96 -1)" fill="#fff" opacity="0.3"/>
      <path id="Path_184" data-name="Path 184" d="M37,39a2.006,2.006,0,0,0,2-2V30.02a2.006,2.006,0,0,0-2-2,22.814,22.814,0,0,1-7.14-1.14,1.679,1.679,0,0,0-.62-.1,2.049,2.049,0,0,0-1.42.58l-4.4,4.4A30.3,30.3,0,0,1,10.24,18.58l4.4-4.4a2.007,2.007,0,0,0,.5-2.04A22.721,22.721,0,0,1,14,5a2.006,2.006,0,0,0-2-2H5A2.006,2.006,0,0,0,3,5,34,34,0,0,0,37,39Zm-7.2-7.96a25.505,25.505,0,0,0,5.2.9v2.98a30.852,30.852,0,0,1-7.6-1.5ZM7.06,7h3a26,26,0,0,0,.92,5.18l-2.4,2.4A29.651,29.651,0,0,1,7.06,7Z" transform="translate(-3 -3)" fill="#fff"/>
    </g>
  </g>
</svg>
