<svg id="codeclimate" xmlns="http://www.w3.org/2000/svg" width="155" height="17.313" viewBox="0 0 155 17.313">
  <g id="Group_11" data-name="Group 11" transform="translate(38.147 3.554)">
    <path id="Path_104" data-name="Path 104" d="M6.064.968A5.59,5.59,0,0,1,10.075,2.5a.293.293,0,0,1,.033.456L8.8,4.294a.279.279,0,0,1-.424,0,3.389,3.389,0,0,0-2.25-.848,3.307,3.307,0,0,0-3.26,3.423,3.272,3.272,0,0,0,3.26,3.358,3.6,3.6,0,0,0,2.217-.782.3.3,0,0,1,.424.033l1.3,1.369a.317.317,0,0,1-.033.456A5.634,5.634,0,0,1,6,12.9,5.967,5.967,0,1,1,6.064.968Z" transform="translate(0 -0.968)" fill="#999"/>
    <path id="Path_105" data-name="Path 105" d="M42.861.968a5.956,5.956,0,0,1,5.967,6,5.967,5.967,0,1,1-5.967-6Zm0,9.325A3.309,3.309,0,1,0,39.568,7a3.333,3.333,0,0,0,3.293,3.293Z" transform="translate(-25.711 -0.968)" fill="#999"/>
    <path id="Path_106" data-name="Path 106" d="M82.931,1.832a.322.322,0,0,1,.293-.326h4.043a5.82,5.82,0,1,1,0,11.64H83.225a.322.322,0,0,1-.293-.326V1.832ZM87.137,10.7a3.206,3.206,0,0,0,3.228-3.358,3.225,3.225,0,0,0-3.228-3.358h-1.6V10.7Z" transform="translate(-57.793 -1.343)" fill="#999"/>
    <path id="Path_107" data-name="Path 107" d="M123.267,1.832a.327.327,0,0,1,.326-.326h6.88a.327.327,0,0,1,.326.326V3.658a.327.327,0,0,1-.326.326h-4.6V6.038h3.782a.351.351,0,0,1,.326.326V8.19a.327.327,0,0,1-.326.326h-3.782v2.25h4.6a.327.327,0,0,1,.326.326v1.826a.327.327,0,0,1-.326.326h-6.88a.327.327,0,0,1-.326-.326V1.832Z" transform="translate(-85.903 -1.343)" fill="#999"/>
    <path id="Path_108" data-name="Path 108" d="M170.528.968a5.59,5.59,0,0,1,4.01,1.532.293.293,0,0,1,.032.456l-1.3,1.337a.278.278,0,0,1-.424,0,3.389,3.389,0,0,0-2.25-.848,3.307,3.307,0,0,0-3.261,3.423,3.272,3.272,0,0,0,3.261,3.358,3.6,3.6,0,0,0,2.217-.782.3.3,0,0,1,.424.033l1.3,1.369a.317.317,0,0,1-.033.456,5.634,5.634,0,0,1-4.043,1.6A5.967,5.967,0,1,1,170.528.968Z" transform="translate(-114.612 -0.968)" fill="#999"/>
    <path id="Path_109" data-name="Path 109" d="M204.262,1.832a.327.327,0,0,1,.326-.326h1.989a.351.351,0,0,1,.326.326V10.7h3.945a.327.327,0,0,1,.326.326v1.826a.327.327,0,0,1-.326.326h-6.228a.327.327,0,0,1-.326-.326V1.832Z" transform="translate(-142.347 -1.343)" fill="#999"/>
    <path id="Path_110" data-name="Path 110" d="M232.336,1.832a.351.351,0,0,1,.326-.326h1.989a.351.351,0,0,1,.326.326V12.82a.351.351,0,0,1-.326.326h-1.989a.351.351,0,0,1-.326-.326V1.832Z" transform="translate(-161.911 -1.343)" fill="#999"/>
    <path id="Path_111" data-name="Path 111" d="M249.814,1.336a.309.309,0,0,1,.293-.261h.261a.389.389,0,0,1,.293.163l3.847,7.173h.033l3.847-7.173a.389.389,0,0,1,.293-.163h.261a.314.314,0,0,1,.293.261l1.891,11.151a.3.3,0,0,1-.326.359h-1.956a.351.351,0,0,1-.326-.261l-.75-5.119h-.033l-2.771,5.347a.434.434,0,0,1-.293.2h-.293a.434.434,0,0,1-.293-.2l-2.8-5.38h-.033l-.717,5.119a.351.351,0,0,1-.326.261h-1.956a.317.317,0,0,1-.326-.359l1.891-11.118Z" transform="translate(-172.771 -1.043)" fill="#999"/>
    <path id="Path_112" data-name="Path 112" d="M293.465,12.347l5.184-11.183a.375.375,0,0,1,.293-.2h.163a.375.375,0,0,1,.293.2l5.184,11.183a.288.288,0,0,1-.293.424h-1.858c-.293,0-.424-.1-.587-.424l-.587-1.3h-4.5l-.587,1.337a.623.623,0,0,1-.587.391h-1.826a.294.294,0,0,1-.294-.424Zm6.814-3.554-1.272-2.739h-.032l-1.239,2.739Z" transform="translate(-204.488 -0.968)" fill="#999"/>
    <path id="Path_113" data-name="Path 113" d="M331.526,3.876h-2.38a.327.327,0,0,1-.326-.326V1.724a.327.327,0,0,1,.326-.326h7.368a.327.327,0,0,1,.326.326V3.583a.327.327,0,0,1-.326.326h-2.38v8.868a.351.351,0,0,1-.326.326H331.82a.351.351,0,0,1-.326-.326v-8.9Z" transform="translate(-229.149 -1.268)" fill="#999"/>
    <path id="Path_114" data-name="Path 114" d="M360.659,1.832a.327.327,0,0,1,.326-.326h6.88a.327.327,0,0,1,.326.326V3.658a.327.327,0,0,1-.326.326h-4.6V6.038h3.782a.351.351,0,0,1,.326.326V8.19a.327.327,0,0,1-.326.326h-3.782v2.25h4.6a.327.327,0,0,1,.326.326v1.826a.327.327,0,0,1-.326.326h-6.88a.327.327,0,0,1-.326-.326V1.832Z" transform="translate(-251.337 -1.343)" fill="#999"/>
  </g>
  <g id="Group_12" data-name="Group 12">
    <path id="Path_115" data-name="Path 115" d="M54.983,0,49.049,5.9,52.57,9.423,54.983,7.01l6.782,6.814L65.253,10.3Z" transform="translate(-34.181)" fill="#999"/>
    <path id="Path_116" data-name="Path 116" d="M13.792,15,10.3,11.509,1.369,20.443,0,21.812l3.521,3.521,1.369-1.4,4.532-4.5.88-.88,3.489,3.489,3.293,3.293,3.521-3.521-3.293-3.293Z" transform="translate(0 -8.021)" fill="#999"/>
  </g>
</svg>
