<svg id="twotone-settings-24px" xmlns="http://www.w3.org/2000/svg" width="48" height="48" viewBox="0 0 48 48">
  <g id="Bounding_Boxes">
    <path id="Path_23" data-name="Path 23" d="M0,0H48V48H0Z" fill="none"/>
  </g>
  <g id="Duotone" transform="translate(4.541 4)">
    <g id="Group_3" data-name="Group 3">
      <path id="Path_24" data-name="Path 24" d="M33.84,13.2l-1.4-2.42L29.9,11.8l-2.12.86-1.82-1.4A10.189,10.189,0,0,0,23.5,9.84l-2.12-.86-.32-2.26L20.68,4h-2.8L17.5,6.7l-.32,2.26-2.12.88a11.713,11.713,0,0,0-2.5,1.46l-1.8,1.36-2.1-.84L6.12,10.78,4.72,13.2l2.16,1.68,1.78,1.4-.28,2.26c-.06.6-.1,1.06-.1,1.46s.04.86.1,1.46l.28,2.26-1.78,1.4L4.72,26.8l1.4,2.42L8.66,28.2l2.12-.86,1.82,1.4a10.189,10.189,0,0,0,2.46,1.42l2.12.86.32,2.26L17.88,36h2.78l.38-2.7.32-2.26,2.12-.86a11.713,11.713,0,0,0,2.5-1.46l1.8-1.36,2.08.84,2.54,1.02,1.4-2.42-2.16-1.68-1.78-1.4.28-2.26a10.685,10.685,0,0,0,.1-1.46c0-.42-.04-.86-.1-1.46l-.28-2.26,1.78-1.4ZM19.28,28a8,8,0,1,1,8-8A8,8,0,0,1,19.28,28Z" transform="translate(0.179 0)" fill="#007bff" opacity="0.15"/>
      <path id="Path_25" data-name="Path 25" d="M36.589,23.96a15.586,15.586,0,0,0,.14-1.96,15.586,15.586,0,0,0-.14-1.96l4.22-3.3a1.009,1.009,0,0,0,.24-1.28l-4-6.92a1,1,0,0,0-.88-.5.934.934,0,0,0-.34.06l-4.98,2a14.612,14.612,0,0,0-3.38-1.96l-.76-5.3a.975.975,0,0,0-.98-.84h-8a.975.975,0,0,0-.98.84l-.76,5.3a15.366,15.366,0,0,0-3.38,1.96l-4.98-2a1.133,1.133,0,0,0-.36-.06.991.991,0,0,0-.86.5l-4,6.92a.986.986,0,0,0,.24,1.28l4.22,3.3A15.862,15.862,0,0,0,6.729,22a15.861,15.861,0,0,0,.14,1.96l-4.22,3.3a1.009,1.009,0,0,0-.24,1.28l4,6.92a1,1,0,0,0,.88.5.934.934,0,0,0,.34-.06l4.98-2a14.612,14.612,0,0,0,3.38,1.96l.76,5.3a.975.975,0,0,0,.98.84h8a.975.975,0,0,0,.98-.84l.76-5.3a15.366,15.366,0,0,0,3.38-1.96l4.98,2a1.133,1.133,0,0,0,.36.06.991.991,0,0,0,.86-.5l4-6.92a1.009,1.009,0,0,0-.24-1.28Zm-3.96-3.42a10.686,10.686,0,0,1,.1,1.46c0,.42-.04.86-.1,1.46l-.28,2.26,1.78,1.4,2.16,1.68-1.4,2.42-2.54-1.02-2.08-.84-1.8,1.36a11.713,11.713,0,0,1-2.5,1.46l-2.12.86-.32,2.26-.4,2.7h-2.8l-.38-2.7-.32-2.26-2.12-.86a11.348,11.348,0,0,1-2.46-1.42l-1.82-1.4-2.12.86-2.54,1.02-1.4-2.42,2.16-1.68,1.78-1.4-.28-2.26c-.06-.62-.1-1.08-.1-1.48s.04-.86.1-1.46l.28-2.26-1.78-1.4L7.169,15.2l1.4-2.42,2.54,1.02,2.08.84,1.8-1.36a11.713,11.713,0,0,1,2.5-1.46l2.12-.86.32-2.26.4-2.7h2.78l.38,2.7.32,2.26,2.12.86a11.348,11.348,0,0,1,2.46,1.42l1.82,1.4,2.12-.86,2.54-1.02,1.4,2.42-2.14,1.7-1.78,1.4Z" transform="translate(-2.271 -2)" fill="#007bff"/>
      <path id="Path_26" data-name="Path 26" d="M16,8a8,8,0,1,0,8,8A8,8,0,0,0,16,8Zm0,12a4,4,0,1,1,4-4A4.012,4.012,0,0,1,16,20Z" transform="translate(3.459 4)" fill="#007bff"/>
    </g>
  </g>
</svg>
